# xmcd
#
# Track frame offsets: 
#        150
#        36466
#        58409
#        71612
#        83139
#        99503
#        112312
#        125529
#        138516
#        151244
#        169809
#        197763
#        211617
#        223601
#        236887
#        249504
#
# Disc length: 3521 seconds
#
# Revision: 0
# Processed by: cddbd v1.5.2PL0 Copyright (c) Steve Scherf et al.
# Submitted via: ExactAudioCopyFreeDBPlugin 1.0
#
DISCID=f30dbf10
DTITLE=Various Artist - Blues power
DYEAR=2008
DGENRE=Blues
TTITLE0=Big Joe Turner - Roll me baby
TTITLE1=B.B. King - The thrill is gone
TTITLE2=Elmore James - Dust my broom
TTITLE3=Muddy Waters - Goin' home
TTITLE4=B.B. King - The other night blues
TTITLE5=Brownie McGhee - I'm a black woman's man
TTITLE6=Sleepy John Estes - Jailhouse blues
TTITLE7=Leadbelly - Good morning blues
TTITLE8=John Lee Hooker - Hobo blues
TTITLE9=Memphis Slim - Gambler's blues
TTITLE10=B.B. King - The cost to be the boss
TTITLE11=Big Bill Broonzy and his Fat Fo - I love my whiskey
TTITLE12=Lightning Hopkins - Have to let you go
TTITLE13=Sonny Boy Williamson - Stop breakin' down
TTITLE14=Howlin' Wolf - My mind is ramblin'
TTITLE15=Sonny Terry and Brownie McGhee - Gonna lay my body down
EXTD=
EXTT0=
EXTT1=
EXTT2=
EXTT3=
EXTT4=
EXTT5=
EXTT6=
EXTT7=
EXTT8=
EXTT9=
EXTT10=
EXTT11=
EXTT12=
EXTT13=
EXTT14=
EXTT15=
PLAYORDER=
